<svg width="50" height="50" viewBox="0 0 50 50" fill="none" xmlns="http://www.w3.org/2000/svg">
<circle cx="25" cy="25" r="25" fill="#282F39"/>
<path d="M26.2262 16.2949L28.5147 20.9305C28.6435 21.1927 28.8942 21.3744 29.1817 21.4158L34.2992 22.1599C34.4628 22.184 34.6165 22.2533 34.7429 22.3601C34.8692 22.4669 34.9632 22.6069 35.0143 22.7642C35.0654 22.9216 35.0714 23.0901 35.0318 23.2507C34.9922 23.4113 34.9086 23.5577 34.7902 23.6733L31.0872 27.282C30.9843 27.3825 30.9073 27.5065 30.8628 27.6433C30.8184 27.7801 30.8077 27.9256 30.8319 28.0674L31.7059 33.1631C31.7337 33.3263 31.7153 33.494 31.6528 33.6472C31.5903 33.8005 31.4862 33.9333 31.3522 34.0305C31.2183 34.1277 31.0598 34.1856 30.8947 34.1975C30.7296 34.2095 30.5645 34.175 30.4179 34.098L25.8409 31.6922C25.7136 31.6254 25.5719 31.5906 25.4281 31.5906C25.2843 31.5906 25.1426 31.6254 25.0152 31.6922L20.4382 34.098C20.2917 34.1747 20.1267 34.2089 19.9618 34.1968C19.7969 34.1847 19.6386 34.1268 19.5049 34.0296C19.3711 33.9324 19.2671 33.7998 19.2047 33.6467C19.1422 33.4936 19.1238 33.3261 19.1514 33.1631L20.0254 28.0674C20.0498 27.9256 20.0394 27.78 19.9949 27.6431C19.9504 27.5063 19.8732 27.3823 19.7701 27.282L16.0671 23.6733C15.9487 23.5576 15.865 23.4112 15.8255 23.2504C15.786 23.0897 15.7921 22.9212 15.8433 22.7638C15.8945 22.6064 15.9887 22.4665 16.1152 22.3597C16.2417 22.253 16.3955 22.1838 16.5593 22.1599L21.6756 21.4158C21.8178 21.395 21.9527 21.3399 22.0689 21.2554C22.1851 21.1708 22.279 21.0594 22.3426 20.9305L24.6311 16.2949C24.7048 16.1463 24.8184 16.0212 24.9594 15.9338C25.1003 15.8464 25.2628 15.8 25.4286 15.8C25.5945 15.8 25.757 15.8464 25.8979 15.9338C26.0388 16.0212 26.1525 16.1463 26.2262 16.2949V16.2949Z" fill="#FC7614"/>
</svg>
